<mxfile host="app.diagrams.net" modified="2021-09-19T23:06:58.110Z" agent="5.0 (Windows NT 10.0; Win64; x64) AppleWebKit/537.36 (KHTML, like Gecko) Chrome/93.0.4577.82 Safari/537.36" etag="K_Z9xs_wKOYCcvyUrmoh" version="15.2.9" type="github">
  <diagram id="6a731a19-8d31-9384-78a2-239565b7b9f0" name="Page-1">
    <mxGraphModel dx="2844" dy="1524" grid="1" gridSize="10" guides="1" tooltips="1" connect="1" arrows="1" fold="1" page="1" pageScale="1" pageWidth="1169" pageHeight="827" background="none" math="0" shadow="0">
      <root>
        <mxCell id="0" />
        <mxCell id="1" parent="0" />
        <mxCell id="1350" value="Caraterísticas" style="ellipse;whiteSpace=wrap;html=1;shadow=0;fontFamily=Helvetica;fontSize=20;fontColor=#FFFFFF;align=center;strokeWidth=3;fillColor=#1699D3;strokeColor=none;rounded=1;" parent="1" vertex="1">
          <mxGeometry x="388.5" y="306.5" width="136.5" height="138.5" as="geometry" />
        </mxCell>
        <mxCell id="1351" value="Concepto" style="ellipse;whiteSpace=wrap;html=1;shadow=0;fontFamily=Helvetica;fontSize=20;fontColor=#FFFFFF;align=center;strokeWidth=3;fillColor=#F08705;strokeColor=none;gradientColor=none;rounded=1;" parent="1" vertex="1">
          <mxGeometry x="1052.38" y="260.5" width="120" height="120" as="geometry" />
        </mxCell>
        <mxCell id="1352" value="Ventajas" style="ellipse;whiteSpace=wrap;html=1;shadow=0;fontFamily=Helvetica;fontSize=20;fontColor=#FFFFFF;align=center;strokeWidth=3;fillColor=#E85642;strokeColor=none;rounded=1;" parent="1" vertex="1">
          <mxGeometry x="1480" y="501.5" width="120" height="120" as="geometry" />
        </mxCell>
        <mxCell id="1354" value="Lenguajes de Modelado" style="ellipse;whiteSpace=wrap;html=1;shadow=0;fontFamily=Helvetica;fontSize=20;fontColor=#FFFFFF;align=center;strokeWidth=3;fillColor=#736ca8;strokeColor=none;rounded=1;" parent="1" vertex="1">
          <mxGeometry x="1042.38" y="850.13" width="140" height="139.75" as="geometry" />
        </mxCell>
        <mxCell id="1358" value="Dolphin" style="fillColor=#64BBE2;strokeColor=none;strokeWidth=3;shadow=0;html=1;fontColor=#FFFFFF;rounded=1;" parent="1" vertex="1">
          <mxGeometry x="213.5" y="451.5" width="130" height="40" as="geometry" />
        </mxCell>
        <mxCell id="1359" style="endArrow=none;strokeWidth=6;strokeColor=#1699D3;html=1;" parent="1" source="1515" target="1350" edge="1">
          <mxGeometry relative="1" as="geometry" />
        </mxCell>
        <mxCell id="1360" style="endArrow=none;strokeWidth=6;strokeColor=#f08705;html=1;" parent="1" source="1515" target="1351" edge="1">
          <mxGeometry relative="1" as="geometry">
            <mxPoint x="1097" y="430" as="sourcePoint" />
            <Array as="points" />
          </mxGeometry>
        </mxCell>
        <mxCell id="1361" style="endArrow=none;strokeWidth=6;strokeColor=#E85642;html=1;" parent="1" source="1515" target="1352" edge="1">
          <mxGeometry relative="1" as="geometry" />
        </mxCell>
        <mxCell id="1364" style="endArrow=none;strokeWidth=6;strokeColor=#736ca8;html=1;" parent="1" source="1515" target="1354" edge="1">
          <mxGeometry relative="1" as="geometry" />
        </mxCell>
        <mxCell id="1367" value="Lion" style="fillColor=#64BBE2;strokeColor=none;strokeWidth=3;shadow=0;html=1;fontColor=#FFFFFF;rounded=1;" parent="1" vertex="1">
          <mxGeometry x="283.5" y="501.5" width="130" height="40" as="geometry" />
        </mxCell>
        <mxCell id="1368" value="Elephant" style="fillColor=#64BBE2;strokeColor=none;strokeWidth=3;shadow=0;html=1;fontColor=#FFFFFF;rounded=1;" parent="1" vertex="1">
          <mxGeometry x="183.5" y="381.5" width="130" height="40" as="geometry" />
        </mxCell>
        <mxCell id="1369" value="Cat" style="fillColor=#64BBE2;strokeColor=none;strokeWidth=3;shadow=0;html=1;fontColor=#FFFFFF;rounded=1;" parent="1" vertex="1">
          <mxGeometry x="183.5" y="306.5" width="130" height="40" as="geometry" />
        </mxCell>
        <mxCell id="1370" value="Giraffe" style="fillColor=#64BBE2;strokeColor=none;strokeWidth=3;shadow=0;html=1;fontColor=#FFFFFF;rounded=1;" parent="1" vertex="1">
          <mxGeometry x="223.5" y="241.5" width="130" height="40" as="geometry" />
        </mxCell>
        <mxCell id="1371" value="Dog" style="fillColor=#64BBE2;strokeColor=none;strokeWidth=3;shadow=0;html=1;fontColor=#FFFFFF;rounded=1;" parent="1" vertex="1">
          <mxGeometry x="273.5" y="181.5" width="130" height="40" as="geometry" />
        </mxCell>
        <mxCell id="1372" value="Donkey" style="fillColor=#64BBE2;strokeColor=none;strokeWidth=3;shadow=0;html=1;fontColor=#FFFFFF;rounded=1;" parent="1" vertex="1">
          <mxGeometry x="353.5" y="121.5" width="130" height="40" as="geometry" />
        </mxCell>
        <mxCell id="1373" value="Leopard" style="fillColor=#64BBE2;strokeColor=none;strokeWidth=3;shadow=0;html=1;fontColor=#FFFFFF;rounded=1;" parent="1" vertex="1">
          <mxGeometry x="473.5" y="181.5" width="130" height="40" as="geometry" />
        </mxCell>
        <mxCell id="1375" value="Zebra" style="fillColor=#64BBE2;strokeColor=none;strokeWidth=3;shadow=0;html=1;fontColor=#FFFFFF;rounded=1;" parent="1" vertex="1">
          <mxGeometry x="563.5" y="301.5" width="130" height="40" as="geometry" />
        </mxCell>
        <mxCell id="1376" value="Gazelle" style="fillColor=#64BBE2;strokeColor=none;strokeWidth=3;shadow=0;html=1;fontColor=#FFFFFF;rounded=1;" parent="1" vertex="1">
          <mxGeometry x="578.5" y="381.5" width="130" height="40" as="geometry" />
        </mxCell>
        <mxCell id="1377" value="" style="edgeStyle=none;endArrow=none;strokeWidth=3;strokeColor=#64BBE2;html=1;" parent="1" source="1350" target="1376" edge="1">
          <mxGeometry x="-356.5" y="91.5" width="100" height="100" as="geometry">
            <mxPoint x="-356.5" y="191.5" as="sourcePoint" />
            <mxPoint x="-256.5" y="91.5" as="targetPoint" />
          </mxGeometry>
        </mxCell>
        <mxCell id="1378" value="" style="edgeStyle=none;endArrow=none;strokeWidth=3;strokeColor=#64BBE2;html=1;" parent="1" source="1350" target="1367" edge="1">
          <mxGeometry x="-356.5" y="91.5" width="100" height="100" as="geometry">
            <mxPoint x="-356.5" y="191.5" as="sourcePoint" />
            <mxPoint x="-256.5" y="91.5" as="targetPoint" />
          </mxGeometry>
        </mxCell>
        <mxCell id="1379" value="" style="edgeStyle=none;endArrow=none;strokeWidth=3;strokeColor=#64BBE2;html=1;" parent="1" source="1350" target="1358" edge="1">
          <mxGeometry x="-356.5" y="91.5" width="100" height="100" as="geometry">
            <mxPoint x="-356.5" y="191.5" as="sourcePoint" />
            <mxPoint x="-256.5" y="91.5" as="targetPoint" />
          </mxGeometry>
        </mxCell>
        <mxCell id="1380" value="" style="edgeStyle=none;endArrow=none;strokeWidth=3;strokeColor=#64BBE2;html=1;" parent="1" source="1350" target="1368" edge="1">
          <mxGeometry x="-356.5" y="91.5" width="100" height="100" as="geometry">
            <mxPoint x="-356.5" y="191.5" as="sourcePoint" />
            <mxPoint x="-256.5" y="91.5" as="targetPoint" />
          </mxGeometry>
        </mxCell>
        <mxCell id="1381" value="" style="edgeStyle=none;endArrow=none;strokeWidth=3;strokeColor=#64BBE2;html=1;" parent="1" source="1350" target="1369" edge="1">
          <mxGeometry x="-356.5" y="91.5" width="100" height="100" as="geometry">
            <mxPoint x="-356.5" y="191.5" as="sourcePoint" />
            <mxPoint x="-256.5" y="91.5" as="targetPoint" />
          </mxGeometry>
        </mxCell>
        <mxCell id="1382" value="" style="edgeStyle=none;endArrow=none;strokeWidth=3;strokeColor=#64BBE2;html=1;" parent="1" source="1350" target="1370" edge="1">
          <mxGeometry x="-356.5" y="91.5" width="100" height="100" as="geometry">
            <mxPoint x="-356.5" y="191.5" as="sourcePoint" />
            <mxPoint x="-256.5" y="91.5" as="targetPoint" />
          </mxGeometry>
        </mxCell>
        <mxCell id="1383" value="" style="edgeStyle=none;endArrow=none;strokeWidth=3;strokeColor=#64BBE2;html=1;" parent="1" source="1350" target="1371" edge="1">
          <mxGeometry x="-356.5" y="91.5" width="100" height="100" as="geometry">
            <mxPoint x="-356.5" y="191.5" as="sourcePoint" />
            <mxPoint x="-256.5" y="91.5" as="targetPoint" />
          </mxGeometry>
        </mxCell>
        <mxCell id="1384" value="" style="edgeStyle=none;endArrow=none;strokeWidth=3;strokeColor=#64BBE2;html=1;" parent="1" source="1350" target="1372" edge="1">
          <mxGeometry x="-356.5" y="91.5" width="100" height="100" as="geometry">
            <mxPoint x="-356.5" y="191.5" as="sourcePoint" />
            <mxPoint x="-256.5" y="91.5" as="targetPoint" />
          </mxGeometry>
        </mxCell>
        <mxCell id="1385" value="" style="edgeStyle=none;endArrow=none;strokeWidth=3;strokeColor=#64BBE2;html=1;" parent="1" source="1350" target="1373" edge="1">
          <mxGeometry x="-356.5" y="91.5" width="100" height="100" as="geometry">
            <mxPoint x="-356.5" y="191.5" as="sourcePoint" />
            <mxPoint x="-256.5" y="91.5" as="targetPoint" />
          </mxGeometry>
        </mxCell>
        <mxCell id="1387" value="" style="edgeStyle=none;endArrow=none;strokeWidth=3;strokeColor=#64BBE2;html=1;" parent="1" source="1350" target="1375" edge="1">
          <mxGeometry x="-356.5" y="91.5" width="100" height="100" as="geometry">
            <mxPoint x="-356.5" y="191.5" as="sourcePoint" />
            <mxPoint x="-256.5" y="91.5" as="targetPoint" />
          </mxGeometry>
        </mxCell>
        <mxCell id="1388" value="Sintaxis formal que permite a los &lt;br&gt;usuarios capturar&amp;nbsp;la semántica y las &lt;br&gt;restricciones de los datos." style="fillColor=#f5af58;strokeColor=none;strokeWidth=3;shadow=0;html=1;fontColor=#FFFFFF;rounded=1;" parent="1" vertex="1">
          <mxGeometry x="840" y="191.5" width="213.5" height="50" as="geometry" />
        </mxCell>
        <mxCell id="1392" value="&lt;div&gt;Técnica para especificar los requisitos de datos&lt;/div&gt;&lt;div&gt;datos que se necesitan dentro del dominio de&lt;/div&gt;&lt;div&gt;&amp;nbsp;la aplicación&lt;span&gt;de la aplicación.&amp;nbsp;&lt;/span&gt;&lt;/div&gt;" style="fillColor=#f5af58;strokeColor=none;strokeWidth=3;shadow=0;html=1;fontColor=#FFFFFF;rounded=1;" parent="1" vertex="1">
          <mxGeometry x="990" y="80" width="300" height="61.5" as="geometry" />
        </mxCell>
        <mxCell id="1393" value="Representación de conceptos relaciones, &lt;br&gt;restricciones,&amp;nbsp;reglas y operaciones para especificar &lt;br&gt;la semántica de los datos para un dominio del &lt;br&gt;discurso elegido.&amp;nbsp;" style="fillColor=#f5af58;strokeColor=none;strokeWidth=3;shadow=0;html=1;fontColor=#FFFFFF;rounded=1;" parent="1" vertex="1">
          <mxGeometry x="1168.5" y="183.75" width="296.5" height="66.5" as="geometry" />
        </mxCell>
        <mxCell id="1400" value="" style="edgeStyle=none;endArrow=none;strokeWidth=3;strokeColor=#F5AF58;html=1;exitX=0.09;exitY=0.221;exitDx=0;exitDy=0;exitPerimeter=0;" parent="1" source="1351" target="1388" edge="1">
          <mxGeometry x="-137.62" y="-221.25" width="100" height="100" as="geometry">
            <mxPoint x="-137.62" y="-121.25" as="sourcePoint" />
            <mxPoint x="-37.620000000000005" y="-221.25" as="targetPoint" />
          </mxGeometry>
        </mxCell>
        <mxCell id="1404" value="" style="edgeStyle=none;endArrow=none;strokeWidth=3;strokeColor=#F5AF58;html=1;exitX=0.5;exitY=0;exitDx=0;exitDy=0;" parent="1" source="1351" target="1392" edge="1">
          <mxGeometry x="-137.62" y="-221.25" width="100" height="100" as="geometry">
            <mxPoint x="-137.62" y="-121.25" as="sourcePoint" />
            <mxPoint x="-37.620000000000005" y="-221.25" as="targetPoint" />
          </mxGeometry>
        </mxCell>
        <mxCell id="1405" value="" style="edgeStyle=none;endArrow=none;strokeWidth=3;strokeColor=#F5AF58;html=1;" parent="1" source="1351" target="1393" edge="1">
          <mxGeometry x="-137.62" y="-221.25" width="100" height="100" as="geometry">
            <mxPoint x="-137.62" y="-121.25" as="sourcePoint" />
            <mxPoint x="-37.620000000000005" y="-221.25" as="targetPoint" />
          </mxGeometry>
        </mxCell>
        <mxCell id="1416" value="Proporciona una estructura compartida, &lt;br&gt;estable y organizada&amp;nbsp;&amp;nbsp;de requisitos de&lt;br&gt;&amp;nbsp;información para el contexto del dominio.&amp;nbsp;" style="fillColor=#f08e81;strokeColor=none;strokeWidth=3;shadow=0;html=1;fontColor=#FFFFFF;rounded=1;" parent="1" vertex="1">
          <mxGeometry x="1370" y="370.75" width="245" height="61.5" as="geometry" />
        </mxCell>
        <mxCell id="1417" value="&amp;nbsp;El modelo puede utilizarse para&lt;br&gt;&amp;nbsp;definir varias aplicaciones y&amp;nbsp;construir &lt;br&gt;bases de datos compartibles.&amp;nbsp;" style="fillColor=#f08e81;strokeColor=none;strokeWidth=3;shadow=0;html=1;fontColor=#FFFFFF;rounded=1;" parent="1" vertex="1">
          <mxGeometry x="1660" y="293.25" width="220" height="66.5" as="geometry" />
        </mxCell>
        <mxCell id="1418" value="&lt;div&gt;Proporcionan una forma de desarrollar&amp;nbsp;&lt;/div&gt;&lt;div&gt;especificaciones para&lt;/div&gt;&lt;div&gt;bases de datos compartidas.&lt;/div&gt;" style="fillColor=#f08e81;strokeColor=none;strokeWidth=3;shadow=0;html=1;fontColor=#FFFFFF;rounded=1;" parent="1" vertex="1">
          <mxGeometry x="1739" y="420" width="230" height="71.5" as="geometry" />
        </mxCell>
        <mxCell id="1419" value="Son útiles para mejorar la&amp;nbsp;calidad &lt;br&gt;del diseño de una base de datos." style="fillColor=#f08e81;strokeColor=none;strokeWidth=3;shadow=0;html=1;fontColor=#FFFFFF;rounded=1;" parent="1" vertex="1">
          <mxGeometry x="1720" y="570" width="215" height="58.5" as="geometry" />
        </mxCell>
        <mxCell id="1427" value="" style="edgeStyle=none;endArrow=none;strokeWidth=3;strokeColor=#F08E81;html=1;" parent="1" source="1352" target="1416" edge="1">
          <mxGeometry x="49" y="200.25" width="100" height="100" as="geometry">
            <mxPoint x="49" y="300.25" as="sourcePoint" />
            <mxPoint x="149" y="200.25" as="targetPoint" />
          </mxGeometry>
        </mxCell>
        <mxCell id="1428" value="" style="edgeStyle=none;endArrow=none;strokeWidth=3;strokeColor=#F08E81;html=1;" parent="1" source="1352" target="1417" edge="1">
          <mxGeometry x="49" y="200.25" width="100" height="100" as="geometry">
            <mxPoint x="49" y="300.25" as="sourcePoint" />
            <mxPoint x="149" y="200.25" as="targetPoint" />
          </mxGeometry>
        </mxCell>
        <mxCell id="1429" value="" style="edgeStyle=none;endArrow=none;strokeWidth=3;strokeColor=#F08E81;html=1;" parent="1" source="1352" target="1418" edge="1">
          <mxGeometry x="49" y="200.25" width="100" height="100" as="geometry">
            <mxPoint x="49" y="300.25" as="sourcePoint" />
            <mxPoint x="149" y="200.25" as="targetPoint" />
          </mxGeometry>
        </mxCell>
        <mxCell id="1430" value="" style="edgeStyle=none;endArrow=none;strokeWidth=3;strokeColor=#F08E81;html=1;" parent="1" source="1352" target="1419" edge="1">
          <mxGeometry x="49" y="200.25" width="100" height="100" as="geometry">
            <mxPoint x="49" y="300.25" as="sourcePoint" />
            <mxPoint x="149" y="200.25" as="targetPoint" />
          </mxGeometry>
        </mxCell>
        <mxCell id="1460" value="Cubre las vistas de la infraestrcutrua&lt;br&gt;de un sistema evoluciona." style="fillColor=#a29dc5;strokeColor=none;strokeWidth=3;shadow=0;html=1;fontColor=#FFFFFF;rounded=1;" parent="1" vertex="1">
          <mxGeometry x="1370" y="957" width="221" height="50" as="geometry" />
        </mxCell>
        <mxCell id="1463" value="" style="edgeStyle=none;endArrow=none;strokeWidth=3;strokeColor=#A29DC5;html=1;" parent="1" source="brMWc24JN0ioXn7CHDn6-1546" target="1460" edge="1">
          <mxGeometry x="-170" y="-74.75" width="100" height="100" as="geometry">
            <mxPoint x="-170" y="25.25" as="sourcePoint" />
            <mxPoint x="-70" y="-74.75" as="targetPoint" />
          </mxGeometry>
        </mxCell>
        <mxCell id="1464" value="" style="edgeStyle=none;endArrow=none;strokeWidth=3;strokeColor=#A29DC5;html=1;" parent="1" source="brMWc24JN0ioXn7CHDn6-1557" target="brMWc24JN0ioXn7CHDn6-1565" edge="1">
          <mxGeometry x="-110" y="-234.75" width="100" height="100" as="geometry">
            <mxPoint x="-110" y="-134.75" as="sourcePoint" />
            <mxPoint x="563.5" y="1120" as="targetPoint" />
          </mxGeometry>
        </mxCell>
        <mxCell id="1514" style="edgeStyle=orthogonalEdgeStyle;html=1;exitX=0.75;exitY=0;entryX=0.75;entryY=0;startArrow=none;startFill=0;endArrow=block;endFill=1;jettySize=auto;orthogonalLoop=1;strokeColor=#12aab5;strokeWidth=6;fontSize=20;fontColor=#2F5B7C;" parent="1" edge="1">
          <mxGeometry relative="1" as="geometry">
            <mxPoint x="1629" y="465.25" as="sourcePoint" />
            <mxPoint x="1629" y="465.25" as="targetPoint" />
          </mxGeometry>
        </mxCell>
        <mxCell id="1515" value="Modelos de Información" style="ellipse;whiteSpace=wrap;html=1;shadow=0;fontFamily=Helvetica;fontSize=30;fontColor=#2F5B7C;align=center;strokeColor=#2F5B7C;strokeWidth=6;fillColor=#FFFFFF;fontStyle=1;gradientColor=none;rounded=1;" parent="1" vertex="1">
          <mxGeometry x="977.38" y="440" width="270" height="270" as="geometry" />
        </mxCell>
        <mxCell id="1541" value="" style="edgeStyle=none;endArrow=none;strokeWidth=3;strokeColor=#A29DC5;html=1;" parent="1" source="1354" target="brMWc24JN0ioXn7CHDn6-1542" edge="1">
          <mxGeometry x="-1535" y="-539.75" width="100" height="100" as="geometry">
            <mxPoint x="-1535" y="-439.75" as="sourcePoint" />
            <mxPoint x="1408.480750721848" y="840" as="targetPoint" />
            <Array as="points" />
          </mxGeometry>
        </mxCell>
        <mxCell id="brMWc24JN0ioXn7CHDn6-1542" value="Concepto" style="ellipse;whiteSpace=wrap;html=1;aspect=fixed;fillColor=#B5739D;strokeColor=#9673a6;rounded=1;" vertex="1" parent="1">
          <mxGeometry x="1320" y="840" width="80" height="80" as="geometry" />
        </mxCell>
        <mxCell id="brMWc24JN0ioXn7CHDn6-1543" value="Es el uso de diversas técnicas estadísticas y &lt;br&gt;probabilísticas para&amp;nbsp;determinar la &lt;br&gt;probabilidad&amp;nbsp;de que una determinada &lt;br&gt;secuencia&amp;nbsp;de palabras aparezca en una frase.&amp;nbsp;" style="fillColor=#a29dc5;strokeColor=none;strokeWidth=3;shadow=0;html=1;fontColor=#FFFFFF;rounded=1;" vertex="1" parent="1">
          <mxGeometry x="1520" y="760" width="290" height="80" as="geometry" />
        </mxCell>
        <mxCell id="brMWc24JN0ioXn7CHDn6-1544" value="" style="edgeStyle=none;endArrow=none;strokeWidth=3;strokeColor=#A29DC5;html=1;" edge="1" parent="1" target="brMWc24JN0ioXn7CHDn6-1543" source="brMWc24JN0ioXn7CHDn6-1542">
          <mxGeometry x="370.28" y="-481.09000000000003" width="100" height="100" as="geometry">
            <mxPoint x="1639.9999999999998" y="698.25" as="sourcePoint" />
            <mxPoint x="470.28" y="-481.09000000000003" as="targetPoint" />
          </mxGeometry>
        </mxCell>
        <mxCell id="brMWc24JN0ioXn7CHDn6-1545" value="" style="edgeStyle=none;endArrow=none;strokeWidth=3;strokeColor=#A29DC5;html=1;" edge="1" parent="1" target="brMWc24JN0ioXn7CHDn6-1546" source="1354">
          <mxGeometry x="-1363.5" y="-421.5" width="100" height="100" as="geometry">
            <mxPoint x="1479.8346863885013" y="998.9430681636459" as="sourcePoint" />
            <mxPoint x="1579.980750721848" y="958.25" as="targetPoint" />
            <Array as="points" />
          </mxGeometry>
        </mxCell>
        <mxCell id="brMWc24JN0ioXn7CHDn6-1546" value="Ventajas" style="ellipse;whiteSpace=wrap;html=1;aspect=fixed;fillColor=#A680B8;strokeColor=#9673a6;rounded=1;" vertex="1" parent="1">
          <mxGeometry x="1580" y="1068.25" width="80" height="80" as="geometry" />
        </mxCell>
        <mxCell id="brMWc24JN0ioXn7CHDn6-1547" value="Facilita la comunicación entre&lt;br&gt;&amp;nbsp;el usuario y el&amp;nbsp;sistema." style="fillColor=#a29dc5;strokeColor=none;strokeWidth=3;shadow=0;html=1;fontColor=#FFFFFF;rounded=1;" vertex="1" parent="1">
          <mxGeometry x="1510" y="900" width="190" height="40" as="geometry" />
        </mxCell>
        <mxCell id="brMWc24JN0ioXn7CHDn6-1548" value="" style="edgeStyle=none;endArrow=none;strokeWidth=3;strokeColor=#A29DC5;html=1;" edge="1" parent="1" target="brMWc24JN0ioXn7CHDn6-1547" source="brMWc24JN0ioXn7CHDn6-1546">
          <mxGeometry x="-20" y="-145.87" width="100" height="100" as="geometry">
            <mxPoint x="1672.8533544796396" y="992.7521233409799" as="sourcePoint" />
            <mxPoint x="80" y="-145.87" as="targetPoint" />
          </mxGeometry>
        </mxCell>
        <mxCell id="brMWc24JN0ioXn7CHDn6-1550" value="Describen las funcionalidades de los&amp;nbsp;&lt;br&gt;sistemas desde la visión del usuario." style="fillColor=#a29dc5;strokeColor=none;strokeWidth=3;shadow=0;html=1;fontColor=#FFFFFF;rounded=1;" vertex="1" parent="1">
          <mxGeometry x="1629" y="950" width="221" height="47" as="geometry" />
        </mxCell>
        <mxCell id="brMWc24JN0ioXn7CHDn6-1551" value="" style="edgeStyle=none;endArrow=none;strokeWidth=3;strokeColor=#A29DC5;html=1;" edge="1" parent="1" target="brMWc24JN0ioXn7CHDn6-1550" source="brMWc24JN0ioXn7CHDn6-1546">
          <mxGeometry x="110" y="-74.75" width="100" height="100" as="geometry">
            <mxPoint x="1870.3123395986163" y="1081.4424857569595" as="sourcePoint" />
            <mxPoint x="210" y="-74.75" as="targetPoint" />
          </mxGeometry>
        </mxCell>
        <mxCell id="brMWc24JN0ioXn7CHDn6-1552" value="Se basa en una notación gráfica concisa&lt;br&gt;y fácil de aprender y utilizar.&lt;span style=&quot;color: rgba(0 , 0 , 0 , 0) ; font-family: monospace ; font-size: 0px&quot;&gt;%3CmxGraphModel%3E%3Croot%3E%3CmxCell%20id%3D%220%22%2F%3E%3CmxCell%20id%3D%221%22%20parent%3D%220%22%2F%3E%3CmxCell%20id%3D%222%22%20value%3D%22Cubre%20las%20vistas%20de%20la%20infraestrcutrua%26lt%3Bbr%26gt%3Bde%20un%20sistema%20evoluciona.%22%20style%3D%22fillColor%3D%23a29dc5%3BstrokeColor%3Dnone%3BstrokeWidth%3D3%3Bshadow%3D0%3Bhtml%3D1%3BfontColor%3D%23FFFFFF%3Brounded%3D1%3B%22%20vertex%3D%221%22%20parent%3D%221%22%3E%3CmxGeometry%20x%3D%221430%22%20y%3D%22797%22%20width%3D%22221%22%20height%3D%2250%22%20as%3D%22geometry%22%2F%3E%3C%2FmxCell%3E%3CmxCell%20id%3D%223%22%20value%3D%22%22%20style%3D%22edgeStyle%3Dnone%3BendArrow%3Dnone%3BstrokeWidth%3D3%3BstrokeColor%3D%23A29DC5%3Bhtml%3D1%3B%22%20edge%3D%221%22%20target%3D%222%22%20parent%3D%221%22%3E%3CmxGeometry%20x%3D%22-110%22%20y%3D%22-234.75%22%20width%3D%22100%22%20height%3D%22100%22%20as%3D%22geometry%22%3E%3CmxPoint%20x%3D%221650.3123395986163%22%20y%3D%22921.4424857569595%22%20as%3D%22sourcePoint%22%2F%3E%3CmxPoint%20x%3D%22-10%22%20y%3D%22-234.75%22%20as%3D%22targetPoint%22%2F%3E%3C%2FmxGeometry%3E%3C%2FmxCell%3E%3C%2Froot%3E%3C%2FmxGraphModel%3E&lt;/span&gt;" style="fillColor=#a29dc5;strokeColor=none;strokeWidth=3;shadow=0;html=1;fontColor=#FFFFFF;rounded=1;" vertex="1" parent="1">
          <mxGeometry x="1739" y="1013.25" width="221" height="50" as="geometry" />
        </mxCell>
        <mxCell id="brMWc24JN0ioXn7CHDn6-1553" value="" style="edgeStyle=none;endArrow=none;strokeWidth=3;strokeColor=#A29DC5;html=1;" edge="1" parent="1" target="brMWc24JN0ioXn7CHDn6-1552" source="brMWc24JN0ioXn7CHDn6-1546">
          <mxGeometry x="240" y="-3.5" width="100" height="100" as="geometry">
            <mxPoint x="2000.3123395986163" y="1152.6924857569595" as="sourcePoint" />
            <mxPoint x="340" y="-3.5" as="targetPoint" />
          </mxGeometry>
        </mxCell>
        <mxCell id="brMWc24JN0ioXn7CHDn6-1554" value="Ayuda a comprender la forma en que un&amp;nbsp;&lt;br&gt;sistema debe comportarse." style="fillColor=#a29dc5;strokeColor=none;strokeWidth=3;shadow=0;html=1;fontColor=#FFFFFF;rounded=1;" vertex="1" parent="1">
          <mxGeometry x="1758" y="1093.25" width="221" height="50" as="geometry" />
        </mxCell>
        <mxCell id="brMWc24JN0ioXn7CHDn6-1555" value="" style="edgeStyle=none;endArrow=none;strokeWidth=3;strokeColor=#A29DC5;html=1;" edge="1" parent="1" target="brMWc24JN0ioXn7CHDn6-1554">
          <mxGeometry x="219.29000000000002" y="74" width="100" height="100" as="geometry">
            <mxPoint x="1660.0028050160658" y="1105.2546753031404" as="sourcePoint" />
            <mxPoint x="319.29" y="74" as="targetPoint" />
          </mxGeometry>
        </mxCell>
        <mxCell id="brMWc24JN0ioXn7CHDn6-1556" value="" style="edgeStyle=none;endArrow=none;strokeWidth=3;strokeColor=#A29DC5;html=1;" edge="1" parent="1" target="brMWc24JN0ioXn7CHDn6-1557" source="1354">
          <mxGeometry x="-1600.25" y="-107.62" width="100" height="100" as="geometry">
            <mxPoint x="1200.0010056667838" y="1100.7534663246006" as="sourcePoint" />
            <mxPoint x="1343.230750721848" y="1272.13" as="targetPoint" />
            <Array as="points" />
          </mxGeometry>
        </mxCell>
        <mxCell id="brMWc24JN0ioXn7CHDn6-1557" value="Tipos" style="ellipse;whiteSpace=wrap;html=1;aspect=fixed;fillColor=#A98EDE;strokeColor=#9673a6;rounded=1;" vertex="1" parent="1">
          <mxGeometry x="830.0000000000001" y="747" width="80" height="80" as="geometry" />
        </mxCell>
        <mxCell id="brMWc24JN0ioXn7CHDn6-1559" value="" style="edgeStyle=none;endArrow=none;strokeWidth=3;strokeColor=#A29DC5;html=1;" edge="1" parent="1" target="brMWc24JN0ioXn7CHDn6-1566" source="brMWc24JN0ioXn7CHDn6-1557">
          <mxGeometry x="204.75" y="-240.45" width="100" height="100" as="geometry">
            <mxPoint x="1410.227394023917" y="1080.0047254977446" as="sourcePoint" />
            <mxPoint x="821.3499999999999" y="1120" as="targetPoint" />
          </mxGeometry>
        </mxCell>
        <mxCell id="brMWc24JN0ioXn7CHDn6-1561" value="" style="edgeStyle=none;endArrow=none;strokeWidth=3;strokeColor=#A29DC5;html=1;entryX=0.5;entryY=0;entryDx=0;entryDy=0;" edge="1" parent="1" target="brMWc24JN0ioXn7CHDn6-1564" source="brMWc24JN0ioXn7CHDn6-1557">
          <mxGeometry x="-320.25" y="-234.7" width="100" height="100" as="geometry">
            <mxPoint x="885.227394023917" y="1085.7547254977446" as="sourcePoint" />
            <mxPoint x="237.65624117848347" y="1056.5089844596773" as="targetPoint" />
          </mxGeometry>
        </mxCell>
        <mxCell id="brMWc24JN0ioXn7CHDn6-1564" value="UML" style="ellipse;whiteSpace=wrap;html=1;aspect=fixed;fillColor=#A98EDE;strokeColor=#9673a6;rounded=1;" vertex="1" parent="1">
          <mxGeometry x="313.5" y="760" width="78.25" height="78.25" as="geometry" />
        </mxCell>
        <mxCell id="brMWc24JN0ioXn7CHDn6-1565" value="XML&amp;nbsp;" style="ellipse;whiteSpace=wrap;html=1;aspect=fixed;fillColor=#A98EDE;strokeColor=#9673a6;rounded=1;" vertex="1" parent="1">
          <mxGeometry x="680" y="999.12" width="78.25" height="78.25" as="geometry" />
        </mxCell>
        <mxCell id="brMWc24JN0ioXn7CHDn6-1566" value="CIM" style="ellipse;whiteSpace=wrap;html=1;aspect=fixed;fillColor=#A98EDE;strokeColor=#9673a6;rounded=1;" vertex="1" parent="1">
          <mxGeometry x="1240" y="1310" width="78.25" height="78.25" as="geometry" />
        </mxCell>
      </root>
    </mxGraphModel>
  </diagram>
</mxfile>
